<svg viewBox="0 0 23 13" fill="none" xmlns="http://www.w3.org/2000/svg">
<mask id="path-1-inside-1" fill="white">
<path d="M11.5 0C7.10561 0 3.12054 2.27968 0.179963 5.9825C-0.0599877 6.28586 -0.0599877 6.70968 0.179963 7.01304C3.12054 10.7203 7.10561 13 11.5 13C15.8944 13 19.8795 10.7203 22.82 7.0175C23.06 6.71414 23.06 6.29032 22.82 5.98696C19.8795 2.27969 15.8944 0 11.5 0ZM11.8152 11.0772C8.89818 11.2512 6.48926 8.97152 6.67275 6.2011C6.82331 3.91695 8.77585 2.06555 11.1848 1.92279C14.1018 1.7488 16.5107 4.02848 16.3272 6.7989C16.172 9.07859 14.2194 10.93 11.8152 11.0772ZM11.6694 8.96259C10.0979 9.05628 8.79938 7.82944 8.90288 6.3394C8.98287 5.1081 10.0368 4.11325 11.3353 4.03294C12.9068 3.93926 14.2053 5.1661 14.1018 6.65614C14.0171 7.8919 12.9632 8.88675 11.6694 8.96259Z"/>
</mask>
<path d="M11.5 0C7.10561 0 3.12054 2.27968 0.179963 5.9825C-0.0599877 6.28586 -0.0599877 6.70968 0.179963 7.01304C3.12054 10.7203 7.10561 13 11.5 13C15.8944 13 19.8795 10.7203 22.82 7.0175C23.06 6.71414 23.06 6.29032 22.82 5.98696C19.8795 2.27969 15.8944 0 11.5 0ZM11.8152 11.0772C8.89818 11.2512 6.48926 8.97152 6.67275 6.2011C6.82331 3.91695 8.77585 2.06555 11.1848 1.92279C14.1018 1.7488 16.5107 4.02848 16.3272 6.7989C16.172 9.07859 14.2194 10.93 11.8152 11.0772ZM11.6694 8.96259C10.0979 9.05628 8.79938 7.82944 8.90288 6.3394C8.98287 5.1081 10.0368 4.11325 11.3353 4.03294C12.9068 3.93926 14.2053 5.1661 14.1018 6.65614C14.0171 7.8919 12.9632 8.88675 11.6694 8.96259Z" stroke="#b5b1b1" stroke-width="2.8" mask="url(#path-1-inside-1)"/>
</svg>
