<svg width="13" height="14" viewBox="0 0 13 14" fill="none" xmlns="http://www.w3.org/2000/svg">
<path fill-rule="evenodd" clip-rule="evenodd" d="M10.1872 5.5C10.1872 7.76437 8.35153 9.6 6.08716 9.6C3.82279 9.6 1.98716 7.76437 1.98716 5.5C1.98716 3.23563 3.82279 1.4 6.08716 1.4C8.35153 1.4 10.1872 3.23563 10.1872 5.5ZM8.46444 10.4611C7.74492 10.8065 6.93864 11 6.08716 11C3.04959 11 0.587158 8.53757 0.587158 5.5C0.587158 2.46243 3.04959 0 6.08716 0C9.12472 0 11.5872 2.46243 11.5872 5.5C11.5872 7.18286 10.8314 8.68919 9.64067 9.69807L11.9016 12.8026C12.1292 13.1151 12.0604 13.553 11.7479 13.7806C11.4354 14.0081 10.9975 13.9393 10.7699 13.6268L8.46444 10.4611Z" fill="#7B7B7B"/>
</svg>
