<svg width="17" height="17" viewBox="0 0 17 17" fill="none" xmlns="http://www.w3.org/2000/svg">
<path d="M15.5118 12.8643L13.1824 10.5423C12.7184 10.0817 11.9501 10.0957 11.47 10.5744L10.2964 11.7438C10.2223 11.7031 10.1455 11.6606 10.0648 11.6154C9.32375 11.2062 8.30945 10.6452 7.2421 9.58055C6.17159 8.51367 5.60826 7.50113 5.19637 6.76199C5.15291 6.68369 5.11127 6.60819 5.07014 6.53649L5.85777 5.75261L6.245 5.36617C6.72587 4.88674 6.73913 4.12113 6.27624 3.6592L3.94686 1.33691C3.48397 0.875626 2.71528 0.88962 2.23441 1.36905L1.5779 2.02716L1.59584 2.04491C1.37571 2.32488 1.19176 2.64778 1.05487 2.99599C0.928684 3.32744 0.85012 3.64373 0.814197 3.96067C0.506616 6.50224 1.67185 8.82504 4.83415 11.977C9.20541 16.3337 12.7281 16.0046 12.88 15.9885C13.211 15.9491 13.5282 15.8702 13.8506 15.7455C14.1969 15.6106 14.5206 15.4275 14.8014 15.2086L14.8157 15.2213L15.4808 14.5722C15.9607 14.0928 15.9745 13.3269 15.5118 12.8643Z" stroke="white" stroke-width="1.4"/>
</svg>
