<svg width="41" height="45" viewBox="0 0 41 45" fill="none" xmlns="http://www.w3.org/2000/svg">
<mask id="path-1-inside-1" fill="white">
<path d="M21.2702 9.21651C21.3039 9.23763 24.9641 11.4895 32.0132 12.9749C32.5927 13.097 33 13.5413 33 14.0515C33 22.7 29.6754 30.7769 21.2418 35.8009C20.7961 36.0664 20.2037 36.0664 19.7581 35.8009C14.5344 32.6891 11.1774 28.3062 9.42846 23.2516C8.36079 20.1659 8 17.2951 8 14.0515C8 13.5413 8.40731 13.097 8.9868 12.9749C16.0875 11.4786 19.6942 9.239 19.7298 9.21651C20.1878 8.92783 20.8123 8.92783 21.2702 9.21651Z"/>
</mask>
<path d="M21.2702 9.21651C21.3039 9.23763 24.9641 11.4895 32.0132 12.9749C32.5927 13.097 33 13.5413 33 14.0515C33 22.7 29.6754 30.7769 21.2418 35.8009C20.7961 36.0664 20.2037 36.0664 19.7581 35.8009C14.5344 32.6891 11.1774 28.3062 9.42846 23.2516C8.36079 20.1659 8 17.2951 8 14.0515C8 13.5413 8.40731 13.097 8.9868 12.9749C16.0875 11.4786 19.6942 9.239 19.7298 9.21651C20.1878 8.92783 20.8123 8.92783 21.2702 9.21651Z" stroke="#FF8200" stroke-width="2" mask="url(#path-1-inside-1)"/>
<mask id="path-2-inside-2" fill="white">
<path d="M21.7632 0.360843C21.8184 0.396045 27.8212 4.1492 39.3817 6.62479C40.332 6.82825 41 7.56882 41 8.41921C41 22.8333 35.5476 36.2948 21.7166 44.6681C20.9856 45.1107 20.0141 45.1106 19.2833 44.6681C10.7165 39.4818 5.21098 32.177 2.34267 23.7527C0.591697 18.6099 0 13.8252 0 8.41921C0 7.56891 0.667989 6.82834 1.61835 6.62479C13.2634 4.13107 19.1786 0.398333 19.2369 0.360843C19.988 -0.120281 21.0122 -0.120281 21.7632 0.360843Z"/>
</mask>
<path d="M21.7632 0.360843C21.8184 0.396045 27.8212 4.1492 39.3817 6.62479C40.332 6.82825 41 7.56882 41 8.41921C41 22.8333 35.5476 36.2948 21.7166 44.6681C20.9856 45.1107 20.0141 45.1106 19.2833 44.6681C10.7165 39.4818 5.21098 32.177 2.34267 23.7527C0.591697 18.6099 0 13.8252 0 8.41921C0 7.56891 0.667989 6.82834 1.61835 6.62479C13.2634 4.13107 19.1786 0.398333 19.2369 0.360843C19.988 -0.120281 21.0122 -0.120281 21.7632 0.360843Z" stroke="#FF8200" stroke-width="2" mask="url(#path-2-inside-2)"/>
</svg>
