<svg width="49" height="51" viewBox="0 0 52 52" fill="none" xmlns="http://www.w3.org/2000/svg">
<path d="M26.6712 29.1576L19.8536 22.3283C19.4127 21.8906 18.7004 21.8906 18.2594 22.3283L14.2005 26.3807C13.7621 26.8209 13.7621 27.5321 14.2005 27.9723L14.8902 28.6609L0.44094 43.0983C0.234744 43.3057 0.117301 43.585 0.113062 43.8772L0 49.8712C0 50.4946 0.506233 51 1.13061 51H5.8792C6.17966 51.0017 6.46853 50.8839 6.68193 50.6726L9.35019 48.0086C9.5537 47.8041 9.671 47.5293 9.67806 47.2411L9.7459 44.8254L11.6793 45.0625C12.0259 45.1038 12.3723 44.983 12.6177 44.7351L14.3023 43.0983C14.4883 42.9138 14.6042 42.6702 14.6302 42.4098L14.845 40.1521L17.6037 39.5426C18.05 39.4448 18.3935 39.0885 18.4742 38.6395L19.0282 35.5805L21.9905 35.1177C22.2259 35.0804 22.4436 34.9698 22.6123 34.8016L26.6712 30.7492C27.1096 30.3088 27.1096 29.5978 26.6712 29.1576Z"/>
<path d="M26.6712 29.1576L19.8536 22.3283C19.4127 21.8906 18.7004 21.8906 18.2594 22.3283L14.2005 26.3807C13.7621 26.8209 13.7621 27.5321 14.2005 27.9723L14.8902 28.6609L0.44094 43.0983C0.234744 43.3057 0.117301 43.585 0.113062 43.8772L0 49.8712C0 50.4946 0.506233 51 1.13061 51H5.8792C6.17966 51.0017 6.46853 50.8839 6.68193 50.6726L9.35019 48.0086C9.5537 47.8041 9.671 47.5293 9.67806 47.2411L9.7459 44.8254L11.6793 45.0625C12.0259 45.1038 12.3723 44.983 12.6177 44.7351L14.3023 43.0983C14.4883 42.9138 14.6042 42.6702 14.6302 42.4098L14.845 40.1521L17.6037 39.5426C18.05 39.4448 18.3935 39.0885 18.4742 38.6395L19.0282 35.5805L21.9905 35.1177C22.2259 35.0804 22.4436 34.9698 22.6123 34.8016L26.6712 30.7492C27.1096 30.3088 27.1096 29.5978 26.6712 29.1576Z" stroke-width="2" stroke="#FF8200"/>
<path d="M46.8681 11.3446L37.6358 2.10264C35.4961 -0.413172 31.7269 -0.713955 29.2172 1.43074C28.9763 1.6365 28.7521 1.86126 28.5468 2.10264L14.7283 15.9537C13.7572 16.953 13.7572 18.5458 14.7283 19.5451L29.4187 34.27C30.4157 35.2433 32.0048 35.2433 33.0017 34.27L46.8681 20.4549C49.7106 17.6057 49.7106 14.2058 46.8681 11.3446ZM41.7155 17.2635C41.7093 17.2699 41.703 17.2762 41.6966 17.2825L41.7085 17.3304C41.2427 17.7946 40.4903 17.7946 40.0245 17.3304L31.7238 9.01019C31.2228 8.58011 31.1644 7.82441 31.5935 7.32221C32.0225 6.82 32.7765 6.76149 33.2775 7.19157C33.3242 7.23167 33.3678 7.27537 33.4078 7.32221L41.6966 15.5706C42.1682 16.0328 42.1767 16.7908 41.7155 17.2635Z"/>
<path d="M46.8681 11.3446L37.6358 2.10264C35.4961 -0.413172 31.7269 -0.713955 29.2172 1.43074C28.9763 1.6365 28.7521 1.86126 28.5468 2.10264L14.7283 15.9537C13.7572 16.953 13.7572 18.5458 14.7283 19.5451L29.4187 34.27C30.4157 35.2433 32.0048 35.2433 33.0017 34.27L46.8681 20.4549C49.7106 17.6057 49.7106 14.2058 46.8681 11.3446ZM41.7155 17.2635C41.7093 17.2699 41.703 17.2762 41.6966 17.2825L41.7085 17.3304C41.2427 17.7946 40.4903 17.7946 40.0245 17.3304L31.7238 9.01019C31.2228 8.58011 31.1644 7.82441 31.5935 7.32221C32.0225 6.82 32.7765 6.76149 33.2775 7.19157C33.3242 7.23167 33.3678 7.27537 33.4078 7.32221L41.6966 15.5706C42.1682 16.0328 42.1767 16.7908 41.7155 17.2635Z" stroke-width="2" stroke="#FF8200"/>
</svg>
